<svg width="25" height="31" viewBox="0 0 25 31" fill="none" xmlns="http://www.w3.org/2000/svg">
<path d="M8.64079 10.9593L24 6.53296M24 16.2016V21.7346C23.9999 22.4559 23.7668 23.1576 23.3361 23.7334C22.9053 24.3092 22.3004 24.7279 21.6127 24.926L19.6819 25.4823C19.3471 25.5843 18.9955 25.6182 18.6476 25.5819C18.2997 25.5456 17.9625 25.4398 17.6555 25.2708C17.3485 25.1018 17.0779 24.8729 16.8594 24.5974C16.6409 24.322 16.479 24.0054 16.3829 23.6662C16.2869 23.327 16.2587 22.9719 16.3 22.6216C16.3413 22.2712 16.4513 21.9327 16.6235 21.6257C16.7958 21.3187 17.0268 21.0492 17.3033 20.8331C17.5797 20.617 17.896 20.4585 18.2337 20.3668L21.6127 19.393C22.3004 19.1949 22.9053 18.7763 23.3361 18.2005C23.7668 17.6246 23.9999 16.923 24 16.2016ZM24 16.2016V1L8.64079 5.42637V20.628M8.64079 20.628V26.161C8.64064 26.8823 8.40757 27.584 7.97684 28.1598C7.54611 28.7356 6.94116 29.1543 6.25353 29.3524L4.32266 29.9086C3.65395 30.0901 2.94131 29.999 2.33861 29.6551C1.73591 29.3111 1.29151 28.7418 1.10137 28.0702C0.911231 27.3985 0.990607 26.6784 1.32236 26.0653C1.65411 25.4522 2.21162 24.9953 2.8745 24.7932L6.25353 23.8194C6.94116 23.6213 7.54611 23.2026 7.97684 22.6268C8.40757 22.051 8.64064 21.3493 8.64079 20.628Z" stroke="white" stroke-width="0.5" stroke-linecap="round" stroke-linejoin="round"/>
</svg>
